# xmcd CD database file
#
# Track frame offsets:
#	150
#	6059
#	27739
#	52588
#	79607
#	95282
#	123349
#	150451
#	176965
#	214492
#	245991
#
# Disc length: 3690 seconds
#
# Revision: 0
# Processed by: cddbd v1.5.2PL0 Copyright (c) Steve Scherf et al.
# Submitted via: CDex 1.70beta3
#
DISCID=8d0e680b
DTITLE=松本圭司 - Promises
DYEAR=1900
DGENRE=Jazz
TTITLE0=Sketch of India
TTITLE1=Promises of Rain
TTITLE2=Preacher (where my mind is)
TTITLE3=Four Attacks
TTITLE4=Five Islands
TTITLE5=Playback
TTITLE6=Deperture
TTITLE7=a Day in Green
TTITLE8=the Northrn Moon
TTITLE9=Reflections of You
TTITLE10=White City
EXTD=
EXTT0=
EXTT1=
EXTT2=
EXTT3=
EXTT4=
EXTT5=
EXTT6=
EXTT7=
EXTT8=
EXTT9=
EXTT10=
PLAYORDER=
